<svg width="239" height="32" viewBox="0 0 239 32" fill="none" xmlns="http://www.w3.org/2000/svg">
<path d="M123.045 24.9955C122.698 24.9536 122.123 24.9346 121.323 24.9346H119.525C119.228 24.9346 118.965 24.9422 118.733 24.9651L118.718 24.9346C118.756 24.8546 118.778 24.767 118.778 24.6756C118.778 24.5765 118.767 24.4737 118.748 24.3708C118.737 24.2604 118.691 24.0623 118.611 23.7766C118.539 23.4948 118.42 23.0834 118.26 22.5425L117.575 20.3637L111.48 3.13144C112.158 3.17334 113.023 3.19239 114.07 3.19239C115.114 3.19239 115.785 3.15429 116.082 3.0705L121.003 17.9259L125.315 3.13144C125.962 3.17334 126.77 3.19239 127.737 3.19239C129.048 3.19239 129.81 3.15429 130.023 3.0705L124.05 20.3028C124.05 20.3028 123.86 20.9427 123.486 22.2225C123.17 23.3119 123.014 24.0166 123.014 24.3404C123.014 24.6565 123.033 24.8584 123.075 24.9498L123.045 24.9955Z" fill="white"/>
<path d="M133.751 3.13144C134.837 3.17334 135.496 3.19239 135.732 3.19239H136.905C137.484 3.19239 137.945 3.15429 138.291 3.0705L138.276 24.9346H133.751V3.13144Z" fill="white"/>
<path d="M154.163 2.78101C156.193 2.78101 157.93 3.13906 159.374 3.84755V8.84506L159.343 8.89076C158.734 7.94611 157.447 7.32142 155.489 7.0167C154.91 6.92528 154.178 6.87957 153.295 6.87957C152.411 6.87957 151.542 7.04717 150.689 7.38237C149.844 7.70995 149.15 8.17466 148.602 8.78411C147.543 9.97254 147.017 11.6714 147.017 13.873C147.017 16.4327 147.688 18.3373 149.028 19.5866C150.133 20.6341 151.607 21.156 153.447 21.156C155.508 21.156 157.184 20.7141 158.475 19.8304C158.94 19.5181 159.336 19.1258 159.663 18.6572L159.724 18.6877V23.2738C158.048 24.6565 155.801 25.346 152.99 25.346C149.657 25.346 147.052 24.2909 145.174 22.1768C143.364 20.158 142.462 17.484 142.462 14.1625C142.462 10.6506 143.452 7.87755 145.433 5.8435C147.432 3.80184 150.343 2.78101 154.163 2.78101Z" fill="white"/>
<path d="M171.674 25.026C171.156 24.9651 169.808 24.9346 167.637 24.9346H167.119V6.86434H163.889C162.921 6.86434 162.354 6.91766 162.182 7.0167C162.007 7.10812 161.87 7.19192 161.771 7.26048L161.725 7.24524V3.0705L161.771 3.00955C162.136 3.13144 163.104 3.19239 164.681 3.19239H174.935C175.887 3.19239 176.451 3.14668 176.626 3.05526C176.809 2.95622 176.946 2.86481 177.038 2.78101L177.099 2.79624V6.98623L177.038 7.03193C176.68 6.92147 175.712 6.86434 174.127 6.86434H171.674V25.026Z" fill="white"/>
<path d="M182.379 22.3597C181.392 21.4074 180.611 20.2647 180.032 18.9315C179.461 17.6021 179.179 16.1432 179.179 14.5587C179.179 12.9741 179.442 11.4771 179.971 10.064C180.508 8.64317 181.274 7.3938 182.272 6.31583C183.266 5.24167 184.466 4.38082 185.868 3.74089C187.27 3.10097 188.843 2.78101 190.591 2.78101C193.596 2.78101 196.129 3.73327 198.194 5.63019C200.388 7.66424 201.485 10.3992 201.485 13.8426C201.485 17.1755 200.35 19.9485 198.087 22.1616C196.693 23.5252 195.032 24.4585 193.105 24.9651C192.16 25.2165 191.052 25.346 189.784 25.346C188.511 25.346 187.209 25.087 185.868 24.5689C184.535 24.0433 183.373 23.3043 182.379 22.3597ZM183.72 14.3454C183.72 15.3624 183.887 16.2956 184.222 17.1488C184.565 17.9945 185.037 18.7182 185.639 19.3276C186.908 20.6189 188.549 21.2626 190.561 21.2626C192.469 21.2626 193.996 20.6456 195.147 19.4038C196.324 18.1354 196.914 16.3985 196.914 14.193C196.914 12.1209 196.354 10.3953 195.238 9.01265C194.027 7.53092 192.374 6.78815 190.271 6.78815C188.229 6.78815 186.607 7.54235 185.411 9.04313C184.283 10.4563 183.72 12.2237 183.72 14.3454Z" fill="white"/>
<path d="M212.722 16.4784C212.395 16.5089 212.044 16.5242 211.671 16.5242C211.305 16.5242 210.757 16.4937 210.025 16.4327V24.9346H205.698V3.08573C207.222 2.88385 209.096 2.78101 211.32 2.78101C214.345 2.78101 216.6 3.34094 218.085 4.457C219.579 5.57687 220.325 7.30238 220.325 9.63734C220.325 11.4467 219.643 12.9969 218.283 14.2844C217.834 14.692 217.324 15.0462 216.745 15.351L220.081 22.3901C220.729 23.8338 221.228 24.6908 221.575 24.9651L221.498 25.0565C220.439 24.8736 218.779 24.8813 216.516 25.0717L212.722 16.4784ZM211.625 6.65103C211.065 6.65103 210.532 6.67769 210.025 6.72721V12.9741C210.551 13.0465 211.176 13.0807 211.899 13.0807C212.619 13.0807 213.225 13.0198 213.713 12.8979C214.208 12.776 214.634 12.5856 214.992 12.3189C215.762 11.74 216.15 10.8791 216.15 9.72876C216.15 8.5708 215.747 7.75566 214.947 7.27572C214.193 6.86053 213.088 6.65103 211.625 6.65103Z" fill="white"/>
<path d="M227.969 20.6075L235.145 16.1738L227.969 12.1209V7.53479L239 14.3454V17.8345L227.969 25.1784V20.6075Z" fill="white"/>
<path d="M37.5836 3.1162C38.254 3.16953 38.7416 3.19239 39.0463 3.19239H40.3262C40.8518 3.19239 41.3813 3.15429 41.9107 3.0705V17.7126C41.9107 20.1123 41.2708 21.994 39.991 23.3653C38.7797 24.687 37.1494 25.346 35.1001 25.346C33.6755 25.346 32.4871 25.0603 31.5348 24.4927C31.1691 24.2909 30.8073 24.0433 30.453 23.7462V19.0229L30.5597 18.9924C31.0168 19.7047 31.5539 20.2875 32.1747 20.7446C32.7918 21.2017 33.5612 21.4302 34.4754 21.4302C36.5476 21.4302 37.5836 20.2342 37.5836 17.8345V3.1162Z" fill="#8C52FF"/>
<path d="M59.5159 3.1162C60.1863 3.16953 60.7424 3.19239 61.1919 3.19239H62.5479C63.005 3.19239 63.485 3.15429 63.9954 3.0705V16.5851C63.9954 19.2667 63.1803 21.4226 61.5576 23.0453C60.0111 24.5803 58.0837 25.346 55.7678 25.346C53.2271 25.346 51.174 24.687 49.6123 23.3653C47.8525 21.8835 46.9764 19.7466 46.9764 16.9508V3.1162C47.8792 3.16953 48.7324 3.19239 49.5361 3.19239C50.336 3.19239 50.9988 3.15429 51.5169 3.0705V17.1641C51.5169 18.5468 51.9359 19.6171 52.7815 20.3789C53.5623 21.0722 54.5413 21.415 55.7221 21.415C57.459 21.415 58.617 20.5237 59.196 18.7334C59.4093 18.0935 59.5159 17.3012 59.5159 16.3566V3.1162Z" fill="#8C52FF"/>
<path d="M71.0712 25.0718C70.1265 24.9804 69.0295 24.9346 67.7801 24.9346H66.485L73.6004 5.00556C73.9127 4.11423 74.0727 3.5962 74.0727 3.45145C74.0727 3.29909 74.0651 3.20767 74.0575 3.1772L74.0727 3.14673C74.7812 3.1772 75.5354 3.19244 76.3277 3.19244C76.9752 3.19244 77.7599 3.18482 78.6741 3.16196L78.7046 3.19244C78.6741 3.24576 78.6589 3.30671 78.6589 3.37527C78.6589 3.58096 78.8265 4.12947 79.1617 5.02079L86.4141 24.9804C86.1894 24.9689 85.9304 24.9651 85.6371 24.9651C85.6371 24.9651 85.3552 24.9537 84.7991 24.9346C84.5248 24.9346 84.2734 24.9346 84.0525 24.9346H81.5233L79.9844 20.2266H72.5948L71.0712 25.0718ZM78.7198 16.3109L76.2515 8.70798L73.8442 16.3109H78.7198Z" fill="#8C52FF"/>
<path d="M89.1866 24.9347C89.2552 24.569 89.2933 24.169 89.2933 23.731V3.19244H92.5539L101.223 16.8289V4.30469C101.223 3.70667 101.166 3.33719 101.056 3.19244H105.474C105.413 3.63049 105.383 4.11424 105.383 4.63989V24.9347H101.985L93.4528 11.8467V24.9347H89.1866Z" fill="#8C52FF"/>
<path d="M0 14.3454L11.0311 7.53479V12.1209L3.83955 16.1738L11.0311 20.6075V25.1784L0 17.8345V14.3454Z" fill="white"/>
<path d="M26.1819 0.39801H30.8746L19.874 31.602H15.1812L26.1819 0.39801Z" fill="white"/>
</svg>
